<mxfile host="app.diagrams.net" modified="2021-03-08T14:43:36.446Z" agent="5.0 (Macintosh; Intel Mac OS X 11_0_1) AppleWebKit/537.36 (KHTML, like Gecko) Chrome/88.0.4324.192 Safari/537.36" etag="Tsta9Od_q6wRHSVVh-Q1" version="14.4.4" type="github">
  <diagram id="JVjzZZ-mrTNuDqXwPHKO" name="Page-1">
    <mxGraphModel dx="1298" dy="834" grid="1" gridSize="10" guides="1" tooltips="1" connect="1" arrows="1" fold="1" page="1" pageScale="1" pageWidth="850" pageHeight="1100" math="0" shadow="0">
      <root>
        <mxCell id="0" />
        <mxCell id="1" parent="0" />
        <mxCell id="oPw1ZNJUO6w4mI9i5yck-1" value="" style="verticalLabelPosition=bottom;verticalAlign=top;html=1;shadow=0;dashed=0;strokeWidth=1;shape=mxgraph.android.phone2;strokeColor=#c0c0c0;" parent="1" vertex="1">
          <mxGeometry x="80" y="120" width="50" height="80" as="geometry" />
        </mxCell>
        <mxCell id="oPw1ZNJUO6w4mI9i5yck-2" value="" style="shape=image;html=1;verticalAlign=top;verticalLabelPosition=bottom;labelBackgroundColor=#ffffff;imageAspect=0;aspect=fixed;image=https://cdn3.iconfinder.com/data/icons/social-network-30/512/social-01-128.png" parent="1" vertex="1">
          <mxGeometry x="92" y="140" width="30" height="30" as="geometry" />
        </mxCell>
        <mxCell id="oPw1ZNJUO6w4mI9i5yck-3" value="Peer student sends question on WhatsApp" style="text;html=1;strokeColor=none;fillColor=none;align=center;verticalAlign=middle;whiteSpace=wrap;rounded=0;" parent="1" vertex="1">
          <mxGeometry x="46" y="220" width="118" height="20" as="geometry" />
        </mxCell>
        <mxCell id="oPw1ZNJUO6w4mI9i5yck-4" value="" style="endArrow=classic;html=1;" parent="1" edge="1">
          <mxGeometry width="50" height="50" relative="1" as="geometry">
            <mxPoint x="160" y="160" as="sourcePoint" />
            <mxPoint x="240" y="160" as="targetPoint" />
          </mxGeometry>
        </mxCell>
        <mxCell id="oPw1ZNJUO6w4mI9i5yck-5" value="" style="verticalLabelPosition=bottom;html=1;verticalAlign=top;align=center;strokeColor=none;fillColor=#00BEF2;shape=mxgraph.azure.website_generic;pointerEvents=1;" parent="1" vertex="1">
          <mxGeometry x="494" y="134" width="90" height="66" as="geometry" />
        </mxCell>
        <mxCell id="oPw1ZNJUO6w4mI9i5yck-6" value="PeerEd routes question to peer tutor" style="text;html=1;strokeColor=none;fillColor=none;align=center;verticalAlign=middle;whiteSpace=wrap;rounded=0;" parent="1" vertex="1">
          <mxGeometry x="480" y="220" width="118" height="20" as="geometry" />
        </mxCell>
        <mxCell id="oPw1ZNJUO6w4mI9i5yck-7" value="" style="shape=image;verticalLabelPosition=bottom;labelBackgroundColor=#ffffff;verticalAlign=top;aspect=fixed;imageAspect=0;image=data:image/png,iVBORw0KGgoAAAANSUhEUgAAAUsAAACYCAMAAABatDuZAAAAkFBMVEX////yL0byKkLyJ0DyIz7yIDzxAi71bXn0VWbxGznxFTXxGTfyLUTzSFr2iZLyKEH5ub72fYj4n6b1c3/96uzxACz+9fb7w8j70dT93+L6vsP+8PHyNEr2gYz82dz2eIT7ys75r7X1ZnT3lp/zQVX95ef4pq33m6L0Xmz3j5n5s7n0X270UGL4pKvxACXxAB0PkQrYAAAJOklEQVR4nO2d63qqOhCGESGVEIv1gOKpakWtbVfv/+42B0lmAioibNun8/6kMYSPSTKZDKlhEARBEARBEARBEARBEARBEARBEARBEARBEARBEARBEARBEARBEKUJeu+DrslGoxFvdV730/DRDfqlDNcbzl2rbYpWjDDbtsut157/6Ib9Nvz1J3O8VEWIaLtsM350634Tw2fumDkdMzwuvsg4yzFbcCtvkcg6Haf/6Fb+Cr64dVHIk5ot6unXCLbuZZuUarIn6ugX2bHz46SOZa0e3dyfzBMvrWRimvtHN/jH4nftnFye7fAUxzJzvZ+/PrrNP5TZvK0JaXHv4603CcIwXK7Wz59OboJ3Ph7d6h/JbO4hmTw+f1/iIv5qYbt4QLVJzDw+ltLjh1VhueOWI9u0N/9vO38Dn7CDC95Zni05nTtQTHfxP7byVzCA007bml4svOewo/P19er/kiu6hs6Q+3Ht0YM5XBux4HLp8Ovze3VP60YjphjNozf/D1z4dzAMAUuw70e+upCBMZC9lfjFxlU/MOcXCgb7LbNN97KhX4HBMUU4kR8MBySzYxjYv2Cze+52J59g3hkdS/1kASzZfj5TaPLeioSMTb1GLe0CLds/RkvYw0e9kj+CYo6Kevnq2Zb+6J/R0gfhDFbOKmNe1XRufub+OvyGjv2f0fJdzeHuu7o8C0O9TcMwBMN6Rz0Rz0XghkiAv6KlryYeryOvHreMc9aFPb7fipblTPnwvjI8c6vXOkRhkr+i5V6apeBZI2bd1IU0eSczxEA4SYM9Nsh+uVJ68ZVW69/U0pbtcDOv21dhDutkcYHyz1VAYyDdzLa+lKxTy28OYQVaMu4CHuZfjuVDq476AVxxOzXDOVjq8CxuOVNrc90W6tRyOYEEBVoGU8jknpvdw0a2S04gE9SpkmXNGvjm0ViQvfhnKbr9haudYS3r3R3KaXkFP1hFEo8nDfd9X+qmzHKBds/seG7voFCbm3lOyjCRWzQdj48oAGIeBgUMs/vJK0+Zo3pcPJ9hUWSXU1h8gf265VvX4ckYwPl8sWpIx5ixNDhHNmGLRvLkveNAmyVjQ69SdtDJl9+ui6SMKmnn4ScHbDKSl5ynUxWebZ2B9Qq0HHBQwoZOxbHLbbUhICwu+o2NptIGhSPv0cJadqH1plq+ZEUnsiu7yn0Kzm8bwZrjimPeVTeIF9sxIbwfjj47RVq+wJ6U1RuxmnN9M1A4Vvn1yG1IG2w/yWtzrGXcezUtVcxSqgOunddSdGHVp2EX3u7kW62BWZsHJMctWi4Kt1UFvxoIq4QyOEfZFWpqKtIWP89OlpV2DazhvJbWG3zoVDhU2krDJAPQAnuNtvTKa+l3tYFG3aXVRMae6qN8KC/2kBbJE7+h52GqKVM53vISWroTGxihnUT3drBqkcbvYFoYD1F1pbX0t+cTUEy3ATHldCtgEBI6k17SMh9OPtZAFVXrbi6DRee15MErkCH1Zj6RySce2BJUECmDBpjSWna1bVUspld/N5f25sENxaVaoguevsGpeiCvBdshTUgtIy9ouZxCRzVawmiOaMuOs76gqUbGW0nLl3MdPKV93Su9FenTWCieu8oStCw320Q7jtKAsXDmQ1i0m5mVI/d9Lmg5QR4Bj1YoPReVSGa6DYhN82UlLVd4tixoSoltqtuQrbZxFuBwwFzHcdmLMsHgEF/i/P1qDZe0RF5/vFh60roii96UowYU0TIqabm9lhgluFEz0t9wdKdrNl2vx3hQGfbW65Veg3wMW2YXLZlpao9iprAJ6r/eBumWNWQC3kXsRVTQsqe/TuHpac523dlQSsuyexM6i7yW/qHTwYtOs5Ny8A04K0e2sdIfur0BUcA0SFBBSzyhtUwuPjYcj6DCq0nDjPN2WZYCLWPwlMKAgSPXPHzXHZdo6QPeQ7Iau13LoTahdRIfY82QafKa40mN9PGkLNYSRGigevZxq/W8WCywURSPAhW0XCMTtLIlHQ6AWdrIfy+NzD1JBWe1hKOhmOekxNeSV3y7lijSJUx5b9QLvEN9OsY04hNd1tKAS5+ihG60ZJ9V0hINl+Alo5FHiHq1bMRXv6Ll6/m1nU4aFb1dS2TuHOSZIVeJ1atlI2vIK1pOsXd+idSk7tSSgX4EVwF1a9lIbOOKlj4v6tmFpGlf99ol0PIDajmqV8tGYm5XtMQPdIlTZ7lzvHRX6tYw516069WykVjwNS3XRWGH/JcFckK8XUsYjYJPBn2IMptut1G0RyHu3KPIa3lpLE2xdwUz0mk6u13LHXpbalZE9mqdS8+rShN7Z3m9NLe4mw88cF8PcqQpGtW0xNEVYZ9WOCj7OZ9rci+N7OnmtGy5z8EwHC9a6R/fch8SRYIccz2/PaiqpTa+C75YzsLeFt1WuDVL2ViuwVCLH1qccdc6zfXLXCePZjM/F3HMho0KWq41vyu+vfYdd91LSKOxHJhZUQwz27I1cuud2G/p6D0/i4hUiV8WTWVa7Q1kcTSTm2UUfYMutVxoE03y+Ds9PyGbZ6toebz2aadTJi3/VprJGdQjiFhLPWqZjBCh1sntzIuttN/zcXmlms8YrYNmcllRQDenpa9F09NFvxY0kqurSlr64tIuheDDXIvr4FyOdRDkcqyD0jnWRlCweSW1xOvi7FWgRAQQIai2pxvm0l9A3ayhvMJGcv8jufKdTGmJHaBTGHlyxietpqUR2ud2yM26Q+qKZr5JmeVDGEpLbQvj9Ht0PoV63opaGv5n8YEXzraZDp7QzLdSk1xmFHCP4dQkR1u4jFa6V9bSML5Yzp0QVqkP6yrT0Dd8gZaxZzoqytUHU5OV3RFGNi11ZkJ1LQ3/mbtgM1d4Dl80aJQxTX1but4yx2qbpum1bZd1wRlRwT9b8i8LfPvg4khNZ982IO43GwYy/Vmk5UL/2FThH+Oz1OJfOi7nm2Pz3wU09s1zeHx+OnQOH4P9FNvDet/PUMvPnrzWB7uauz5gH1UznI4V0+t2Fkx3/X1/N73yQXFd0Lf49UFnRNQInV1SI3SmTo3QWU91QmeQ1QidjVcjdGZjndBZojVCZ9zWCZ29XCd0Jnit0Fn19UL/Q4EgCIIgCIIgCIIgCIIgCIIgCIIgCIIgCIIgCIIgCIIgCIIgCOJP8R+qtb3uFIZXkAAAAABJRU5ErkJggg==;" parent="1" vertex="1">
          <mxGeometry x="247.33999999999995" y="130" width="130.66" height="60" as="geometry" />
        </mxCell>
        <mxCell id="oPw1ZNJUO6w4mI9i5yck-9" value="Twilio sends the message to our PeerEd Engine" style="text;html=1;strokeColor=none;fillColor=none;align=center;verticalAlign=middle;whiteSpace=wrap;rounded=0;" parent="1" vertex="1">
          <mxGeometry x="260" y="210" width="118" height="20" as="geometry" />
        </mxCell>
        <mxCell id="oPw1ZNJUO6w4mI9i5yck-10" value="" style="endArrow=classic;html=1;" parent="1" edge="1">
          <mxGeometry width="50" height="50" relative="1" as="geometry">
            <mxPoint x="390" y="159.5" as="sourcePoint" />
            <mxPoint x="470" y="159.5" as="targetPoint" />
          </mxGeometry>
        </mxCell>
        <mxCell id="oPw1ZNJUO6w4mI9i5yck-11" value="" style="shape=image;verticalLabelPosition=bottom;labelBackgroundColor=#ffffff;verticalAlign=top;aspect=fixed;imageAspect=0;image=data:image/png,iVBORw0KGgoAAAANSUhEUgAAAUsAAACYCAMAAABatDuZAAAAkFBMVEX////yL0byKkLyJ0DyIz7yIDzxAi71bXn0VWbxGznxFTXxGTfyLUTzSFr2iZLyKEH5ub72fYj4n6b1c3/96uzxACz+9fb7w8j70dT93+L6vsP+8PHyNEr2gYz82dz2eIT7ys75r7X1ZnT3lp/zQVX95ef4pq33m6L0Xmz3j5n5s7n0X270UGL4pKvxACXxAB0PkQrYAAAJOklEQVR4nO2d63qqOhCGESGVEIv1gOKpakWtbVfv/+42B0lmAioibNun8/6kMYSPSTKZDKlhEARBEARBEARBEARBEARBEARBEARBEARBEARBEARBEARBEARBEKUJeu+DrslGoxFvdV730/DRDfqlDNcbzl2rbYpWjDDbtsut157/6Ib9Nvz1J3O8VEWIaLtsM350634Tw2fumDkdMzwuvsg4yzFbcCtvkcg6Haf/6Fb+Cr64dVHIk5ot6unXCLbuZZuUarIn6ugX2bHz46SOZa0e3dyfzBMvrWRimvtHN/jH4nftnFye7fAUxzJzvZ+/PrrNP5TZvK0JaXHv4603CcIwXK7Wz59OboJ3Ph7d6h/JbO4hmTw+f1/iIv5qYbt4QLVJzDw+ltLjh1VhueOWI9u0N/9vO38Dn7CDC95Zni05nTtQTHfxP7byVzCA007bml4svOewo/P19er/kiu6hs6Q+3Ht0YM5XBux4HLp8Ovze3VP60YjphjNozf/D1z4dzAMAUuw70e+upCBMZC9lfjFxlU/MOcXCgb7LbNN97KhX4HBMUU4kR8MBySzYxjYv2Cze+52J59g3hkdS/1kASzZfj5TaPLeioSMTb1GLe0CLds/RkvYw0e9kj+CYo6Kevnq2Zb+6J/R0gfhDFbOKmNe1XRufub+OvyGjv2f0fJdzeHuu7o8C0O9TcMwBMN6Rz0Rz0XghkiAv6KlryYeryOvHreMc9aFPb7fipblTPnwvjI8c6vXOkRhkr+i5V6apeBZI2bd1IU0eSczxEA4SYM9Nsh+uVJ68ZVW69/U0pbtcDOv21dhDutkcYHyz1VAYyDdzLa+lKxTy28OYQVaMu4CHuZfjuVDq476AVxxOzXDOVjq8CxuOVNrc90W6tRyOYEEBVoGU8jknpvdw0a2S04gE9SpkmXNGvjm0ViQvfhnKbr9haudYS3r3R3KaXkFP1hFEo8nDfd9X+qmzHKBds/seG7voFCbm3lOyjCRWzQdj48oAGIeBgUMs/vJK0+Zo3pcPJ9hUWSXU1h8gf265VvX4ckYwPl8sWpIx5ixNDhHNmGLRvLkveNAmyVjQ69SdtDJl9+ui6SMKmnn4ScHbDKSl5ynUxWebZ2B9Qq0HHBQwoZOxbHLbbUhICwu+o2NptIGhSPv0cJadqH1plq+ZEUnsiu7yn0Kzm8bwZrjimPeVTeIF9sxIbwfjj47RVq+wJ6U1RuxmnN9M1A4Vvn1yG1IG2w/yWtzrGXcezUtVcxSqgOunddSdGHVp2EX3u7kW62BWZsHJMctWi4Kt1UFvxoIq4QyOEfZFWpqKtIWP89OlpV2DazhvJbWG3zoVDhU2krDJAPQAnuNtvTKa+l3tYFG3aXVRMae6qN8KC/2kBbJE7+h52GqKVM53vISWroTGxihnUT3drBqkcbvYFoYD1F1pbX0t+cTUEy3ATHldCtgEBI6k17SMh9OPtZAFVXrbi6DRee15MErkCH1Zj6RySce2BJUECmDBpjSWna1bVUspld/N5f25sENxaVaoguevsGpeiCvBdshTUgtIy9ouZxCRzVawmiOaMuOs76gqUbGW0nLl3MdPKV93Su9FenTWCieu8oStCw320Q7jtKAsXDmQ1i0m5mVI/d9Lmg5QR4Bj1YoPReVSGa6DYhN82UlLVd4tixoSoltqtuQrbZxFuBwwFzHcdmLMsHgEF/i/P1qDZe0RF5/vFh60roii96UowYU0TIqabm9lhgluFEz0t9wdKdrNl2vx3hQGfbW65Veg3wMW2YXLZlpao9iprAJ6r/eBumWNWQC3kXsRVTQsqe/TuHpac523dlQSsuyexM6i7yW/qHTwYtOs5Ny8A04K0e2sdIfur0BUcA0SFBBSzyhtUwuPjYcj6DCq0nDjPN2WZYCLWPwlMKAgSPXPHzXHZdo6QPeQ7Iau13LoTahdRIfY82QafKa40mN9PGkLNYSRGigevZxq/W8WCywURSPAhW0XCMTtLIlHQ6AWdrIfy+NzD1JBWe1hKOhmOekxNeSV3y7lijSJUx5b9QLvEN9OsY04hNd1tKAS5+ihG60ZJ9V0hINl+Alo5FHiHq1bMRXv6Ll6/m1nU4aFb1dS2TuHOSZIVeJ1atlI2vIK1pOsXd+idSk7tSSgX4EVwF1a9lIbOOKlj4v6tmFpGlf99ol0PIDajmqV8tGYm5XtMQPdIlTZ7lzvHRX6tYw516069WykVjwNS3XRWGH/JcFckK8XUsYjYJPBn2IMptut1G0RyHu3KPIa3lpLE2xdwUz0mk6u13LHXpbalZE9mqdS8+rShN7Z3m9NLe4mw88cF8PcqQpGtW0xNEVYZ9WOCj7OZ9rci+N7OnmtGy5z8EwHC9a6R/fch8SRYIccz2/PaiqpTa+C75YzsLeFt1WuDVL2ViuwVCLH1qccdc6zfXLXCePZjM/F3HMho0KWq41vyu+vfYdd91LSKOxHJhZUQwz27I1cuud2G/p6D0/i4hUiV8WTWVa7Q1kcTSTm2UUfYMutVxoE03y+Ds9PyGbZ6toebz2aadTJi3/VprJGdQjiFhLPWqZjBCh1sntzIuttN/zcXmlms8YrYNmcllRQDenpa9F09NFvxY0kqurSlr64tIuheDDXIvr4FyOdRDkcqyD0jnWRlCweSW1xOvi7FWgRAQQIai2pxvm0l9A3ayhvMJGcv8jufKdTGmJHaBTGHlyxietpqUR2ud2yM26Q+qKZr5JmeVDGEpLbQvj9Ht0PoV63opaGv5n8YEXzraZDp7QzLdSk1xmFHCP4dQkR1u4jFa6V9bSML5Yzp0QVqkP6yrT0Dd8gZaxZzoqytUHU5OV3RFGNi11ZkJ1LQ3/mbtgM1d4Dl80aJQxTX1but4yx2qbpum1bZd1wRlRwT9b8i8LfPvg4khNZ982IO43GwYy/Vmk5UL/2FThH+Oz1OJfOi7nm2Pz3wU09s1zeHx+OnQOH4P9FNvDet/PUMvPnrzWB7uauz5gH1UznI4V0+t2Fkx3/X1/N73yQXFd0Lf49UFnRNQInV1SI3SmTo3QWU91QmeQ1QidjVcjdGZjndBZojVCZ9zWCZ29XCd0Jnit0Fn19UL/Q4EgCIIgCIIgCIIgCIIgCIIgCIIgCIIgCIIgCIIgCIIgCIIgCOJP8R+qtb3uFIZXkAAAAABJRU5ErkJggg==;" parent="1" vertex="1">
          <mxGeometry x="659.9999999999999" y="280" width="130.66" height="60" as="geometry" />
        </mxCell>
        <mxCell id="oPw1ZNJUO6w4mI9i5yck-12" value="" style="endArrow=classic;html=1;" parent="1" edge="1">
          <mxGeometry width="50" height="50" relative="1" as="geometry">
            <mxPoint x="610" y="200" as="sourcePoint" />
            <mxPoint x="710" y="270" as="targetPoint" />
          </mxGeometry>
        </mxCell>
        <mxCell id="oPw1ZNJUO6w4mI9i5yck-13" value="Twilio receives peer tutor&#39;s number and sends the question" style="text;html=1;strokeColor=none;fillColor=none;align=center;verticalAlign=middle;whiteSpace=wrap;rounded=0;" parent="1" vertex="1">
          <mxGeometry x="672.66" y="360" width="118" height="20" as="geometry" />
        </mxCell>
        <mxCell id="oPw1ZNJUO6w4mI9i5yck-14" value="" style="verticalLabelPosition=bottom;verticalAlign=top;html=1;shadow=0;dashed=0;strokeWidth=1;shape=mxgraph.android.phone2;strokeColor=#c0c0c0;" parent="1" vertex="1">
          <mxGeometry x="610" y="480" width="50" height="80" as="geometry" />
        </mxCell>
        <mxCell id="oPw1ZNJUO6w4mI9i5yck-15" value="" style="shape=image;html=1;verticalAlign=top;verticalLabelPosition=bottom;labelBackgroundColor=#ffffff;imageAspect=0;aspect=fixed;image=https://cdn3.iconfinder.com/data/icons/social-network-30/512/social-01-128.png" parent="1" vertex="1">
          <mxGeometry x="620" y="505" width="30" height="30" as="geometry" />
        </mxCell>
        <mxCell id="oPw1ZNJUO6w4mI9i5yck-16" value="Peer Tutor receives WhatsApp message and responds to question" style="text;html=1;strokeColor=none;fillColor=none;align=center;verticalAlign=middle;whiteSpace=wrap;rounded=0;" parent="1" vertex="1">
          <mxGeometry x="584" y="590" width="118" height="20" as="geometry" />
        </mxCell>
        <mxCell id="oPw1ZNJUO6w4mI9i5yck-17" value="" style="endArrow=classic;html=1;" parent="1" edge="1">
          <mxGeometry width="50" height="50" relative="1" as="geometry">
            <mxPoint x="752.66" y="400" as="sourcePoint" />
            <mxPoint x="673" y="490" as="targetPoint" />
            <Array as="points">
              <mxPoint x="742.66" y="440" />
            </Array>
          </mxGeometry>
        </mxCell>
        <mxCell id="oPw1ZNJUO6w4mI9i5yck-18" value="" style="shape=image;verticalLabelPosition=bottom;labelBackgroundColor=#ffffff;verticalAlign=top;aspect=fixed;imageAspect=0;image=data:image/png,iVBORw0KGgoAAAANSUhEUgAAAUsAAACYCAMAAABatDuZAAAAkFBMVEX////yL0byKkLyJ0DyIz7yIDzxAi71bXn0VWbxGznxFTXxGTfyLUTzSFr2iZLyKEH5ub72fYj4n6b1c3/96uzxACz+9fb7w8j70dT93+L6vsP+8PHyNEr2gYz82dz2eIT7ys75r7X1ZnT3lp/zQVX95ef4pq33m6L0Xmz3j5n5s7n0X270UGL4pKvxACXxAB0PkQrYAAAJOklEQVR4nO2d63qqOhCGESGVEIv1gOKpakWtbVfv/+42B0lmAioibNun8/6kMYSPSTKZDKlhEARBEARBEARBEARBEARBEARBEARBEARBEARBEARBEARBEARBEKUJeu+DrslGoxFvdV730/DRDfqlDNcbzl2rbYpWjDDbtsut157/6Ib9Nvz1J3O8VEWIaLtsM350634Tw2fumDkdMzwuvsg4yzFbcCtvkcg6Haf/6Fb+Cr64dVHIk5ot6unXCLbuZZuUarIn6ugX2bHz46SOZa0e3dyfzBMvrWRimvtHN/jH4nftnFye7fAUxzJzvZ+/PrrNP5TZvK0JaXHv4603CcIwXK7Wz59OboJ3Ph7d6h/JbO4hmTw+f1/iIv5qYbt4QLVJzDw+ltLjh1VhueOWI9u0N/9vO38Dn7CDC95Zni05nTtQTHfxP7byVzCA007bml4svOewo/P19er/kiu6hs6Q+3Ht0YM5XBux4HLp8Ovze3VP60YjphjNozf/D1z4dzAMAUuw70e+upCBMZC9lfjFxlU/MOcXCgb7LbNN97KhX4HBMUU4kR8MBySzYxjYv2Cze+52J59g3hkdS/1kASzZfj5TaPLeioSMTb1GLe0CLds/RkvYw0e9kj+CYo6Kevnq2Zb+6J/R0gfhDFbOKmNe1XRufub+OvyGjv2f0fJdzeHuu7o8C0O9TcMwBMN6Rz0Rz0XghkiAv6KlryYeryOvHreMc9aFPb7fipblTPnwvjI8c6vXOkRhkr+i5V6apeBZI2bd1IU0eSczxEA4SYM9Nsh+uVJ68ZVW69/U0pbtcDOv21dhDutkcYHyz1VAYyDdzLa+lKxTy28OYQVaMu4CHuZfjuVDq476AVxxOzXDOVjq8CxuOVNrc90W6tRyOYEEBVoGU8jknpvdw0a2S04gE9SpkmXNGvjm0ViQvfhnKbr9haudYS3r3R3KaXkFP1hFEo8nDfd9X+qmzHKBds/seG7voFCbm3lOyjCRWzQdj48oAGIeBgUMs/vJK0+Zo3pcPJ9hUWSXU1h8gf265VvX4ckYwPl8sWpIx5ixNDhHNmGLRvLkveNAmyVjQ69SdtDJl9+ui6SMKmnn4ScHbDKSl5ynUxWebZ2B9Qq0HHBQwoZOxbHLbbUhICwu+o2NptIGhSPv0cJadqH1plq+ZEUnsiu7yn0Kzm8bwZrjimPeVTeIF9sxIbwfjj47RVq+wJ6U1RuxmnN9M1A4Vvn1yG1IG2w/yWtzrGXcezUtVcxSqgOunddSdGHVp2EX3u7kW62BWZsHJMctWi4Kt1UFvxoIq4QyOEfZFWpqKtIWP89OlpV2DazhvJbWG3zoVDhU2krDJAPQAnuNtvTKa+l3tYFG3aXVRMae6qN8KC/2kBbJE7+h52GqKVM53vISWroTGxihnUT3drBqkcbvYFoYD1F1pbX0t+cTUEy3ATHldCtgEBI6k17SMh9OPtZAFVXrbi6DRee15MErkCH1Zj6RySce2BJUECmDBpjSWna1bVUspld/N5f25sENxaVaoguevsGpeiCvBdshTUgtIy9ouZxCRzVawmiOaMuOs76gqUbGW0nLl3MdPKV93Su9FenTWCieu8oStCw320Q7jtKAsXDmQ1i0m5mVI/d9Lmg5QR4Bj1YoPReVSGa6DYhN82UlLVd4tixoSoltqtuQrbZxFuBwwFzHcdmLMsHgEF/i/P1qDZe0RF5/vFh60roii96UowYU0TIqabm9lhgluFEz0t9wdKdrNl2vx3hQGfbW65Veg3wMW2YXLZlpao9iprAJ6r/eBumWNWQC3kXsRVTQsqe/TuHpac523dlQSsuyexM6i7yW/qHTwYtOs5Ny8A04K0e2sdIfur0BUcA0SFBBSzyhtUwuPjYcj6DCq0nDjPN2WZYCLWPwlMKAgSPXPHzXHZdo6QPeQ7Iau13LoTahdRIfY82QafKa40mN9PGkLNYSRGigevZxq/W8WCywURSPAhW0XCMTtLIlHQ6AWdrIfy+NzD1JBWe1hKOhmOekxNeSV3y7lijSJUx5b9QLvEN9OsY04hNd1tKAS5+ihG60ZJ9V0hINl+Alo5FHiHq1bMRXv6Ll6/m1nU4aFb1dS2TuHOSZIVeJ1atlI2vIK1pOsXd+idSk7tSSgX4EVwF1a9lIbOOKlj4v6tmFpGlf99ol0PIDajmqV8tGYm5XtMQPdIlTZ7lzvHRX6tYw516069WykVjwNS3XRWGH/JcFckK8XUsYjYJPBn2IMptut1G0RyHu3KPIa3lpLE2xdwUz0mk6u13LHXpbalZE9mqdS8+rShN7Z3m9NLe4mw88cF8PcqQpGtW0xNEVYZ9WOCj7OZ9rci+N7OnmtGy5z8EwHC9a6R/fch8SRYIccz2/PaiqpTa+C75YzsLeFt1WuDVL2ViuwVCLH1qccdc6zfXLXCePZjM/F3HMho0KWq41vyu+vfYdd91LSKOxHJhZUQwz27I1cuud2G/p6D0/i4hUiV8WTWVa7Q1kcTSTm2UUfYMutVxoE03y+Ds9PyGbZ6toebz2aadTJi3/VprJGdQjiFhLPWqZjBCh1sntzIuttN/zcXmlms8YrYNmcllRQDenpa9F09NFvxY0kqurSlr64tIuheDDXIvr4FyOdRDkcqyD0jnWRlCweSW1xOvi7FWgRAQQIai2pxvm0l9A3ayhvMJGcv8jufKdTGmJHaBTGHlyxietpqUR2ud2yM26Q+qKZr5JmeVDGEpLbQvj9Ht0PoV63opaGv5n8YEXzraZDp7QzLdSk1xmFHCP4dQkR1u4jFa6V9bSML5Yzp0QVqkP6yrT0Dd8gZaxZzoqytUHU5OV3RFGNi11ZkJ1LQ3/mbtgM1d4Dl80aJQxTX1but4yx2qbpum1bZd1wRlRwT9b8i8LfPvg4khNZ982IO43GwYy/Vmk5UL/2FThH+Oz1OJfOi7nm2Pz3wU09s1zeHx+OnQOH4P9FNvDet/PUMvPnrzWB7uauz5gH1UznI4V0+t2Fkx3/X1/N73yQXFd0Lf49UFnRNQInV1SI3SmTo3QWU91QmeQ1QidjVcjdGZjndBZojVCZ9zWCZ29XCd0Jnit0Fn19UL/Q4EgCIIgCIIgCIIgCIIgCIIgCIIgCIIgCIIgCIIgCIIgCIIgCOJP8R+qtb3uFIZXkAAAAABJRU5ErkJggg==;" parent="1" vertex="1">
          <mxGeometry x="371.6699999999999" y="520" width="130.66" height="60" as="geometry" />
        </mxCell>
        <mxCell id="oPw1ZNJUO6w4mI9i5yck-19" value="" style="verticalLabelPosition=bottom;html=1;verticalAlign=top;align=center;strokeColor=none;fillColor=#00BEF2;shape=mxgraph.azure.website_generic;pointerEvents=1;" parent="1" vertex="1">
          <mxGeometry x="140" y="517" width="90" height="66" as="geometry" />
        </mxCell>
        <mxCell id="oPw1ZNJUO6w4mI9i5yck-22" value="Twilio sends the message to the PeerEd Engine" style="text;html=1;strokeColor=none;fillColor=none;align=center;verticalAlign=middle;whiteSpace=wrap;rounded=0;" parent="1" vertex="1">
          <mxGeometry x="378" y="603" width="118" height="20" as="geometry" />
        </mxCell>
        <mxCell id="oPw1ZNJUO6w4mI9i5yck-23" value="" style="endArrow=classic;html=1;" parent="1" edge="1">
          <mxGeometry width="50" height="50" relative="1" as="geometry">
            <mxPoint x="587" y="535" as="sourcePoint" />
            <mxPoint x="500" y="555" as="targetPoint" />
            <Array as="points">
              <mxPoint x="587" y="535" />
            </Array>
          </mxGeometry>
        </mxCell>
        <mxCell id="oPw1ZNJUO6w4mI9i5yck-24" value="PeerEd Engine routes back the response to the student" style="text;html=1;strokeColor=none;fillColor=none;align=center;verticalAlign=middle;whiteSpace=wrap;rounded=0;" parent="1" vertex="1">
          <mxGeometry x="126" y="616" width="118" height="7" as="geometry" />
        </mxCell>
        <mxCell id="oPw1ZNJUO6w4mI9i5yck-25" value="" style="endArrow=classic;html=1;" parent="1" edge="1">
          <mxGeometry width="50" height="50" relative="1" as="geometry">
            <mxPoint x="347" y="550" as="sourcePoint" />
            <mxPoint x="260" y="550" as="targetPoint" />
            <Array as="points">
              <mxPoint x="370" y="550" />
              <mxPoint x="347" y="550" />
            </Array>
          </mxGeometry>
        </mxCell>
        <mxCell id="oPw1ZNJUO6w4mI9i5yck-26" value="" style="shape=image;verticalLabelPosition=bottom;labelBackgroundColor=#ffffff;verticalAlign=top;aspect=fixed;imageAspect=0;image=data:image/png,iVBORw0KGgoAAAANSUhEUgAAAUsAAACYCAMAAABatDuZAAAAkFBMVEX////yL0byKkLyJ0DyIz7yIDzxAi71bXn0VWbxGznxFTXxGTfyLUTzSFr2iZLyKEH5ub72fYj4n6b1c3/96uzxACz+9fb7w8j70dT93+L6vsP+8PHyNEr2gYz82dz2eIT7ys75r7X1ZnT3lp/zQVX95ef4pq33m6L0Xmz3j5n5s7n0X270UGL4pKvxACXxAB0PkQrYAAAJOklEQVR4nO2d63qqOhCGESGVEIv1gOKpakWtbVfv/+42B0lmAioibNun8/6kMYSPSTKZDKlhEARBEARBEARBEARBEARBEARBEARBEARBEARBEARBEARBEARBEKUJeu+DrslGoxFvdV730/DRDfqlDNcbzl2rbYpWjDDbtsut157/6Ib9Nvz1J3O8VEWIaLtsM350634Tw2fumDkdMzwuvsg4yzFbcCtvkcg6Haf/6Fb+Cr64dVHIk5ot6unXCLbuZZuUarIn6ugX2bHz46SOZa0e3dyfzBMvrWRimvtHN/jH4nftnFye7fAUxzJzvZ+/PrrNP5TZvK0JaXHv4603CcIwXK7Wz59OboJ3Ph7d6h/JbO4hmTw+f1/iIv5qYbt4QLVJzDw+ltLjh1VhueOWI9u0N/9vO38Dn7CDC95Zni05nTtQTHfxP7byVzCA007bml4svOewo/P19er/kiu6hs6Q+3Ht0YM5XBux4HLp8Ovze3VP60YjphjNozf/D1z4dzAMAUuw70e+upCBMZC9lfjFxlU/MOcXCgb7LbNN97KhX4HBMUU4kR8MBySzYxjYv2Cze+52J59g3hkdS/1kASzZfj5TaPLeioSMTb1GLe0CLds/RkvYw0e9kj+CYo6Kevnq2Zb+6J/R0gfhDFbOKmNe1XRufub+OvyGjv2f0fJdzeHuu7o8C0O9TcMwBMN6Rz0Rz0XghkiAv6KlryYeryOvHreMc9aFPb7fipblTPnwvjI8c6vXOkRhkr+i5V6apeBZI2bd1IU0eSczxEA4SYM9Nsh+uVJ68ZVW69/U0pbtcDOv21dhDutkcYHyz1VAYyDdzLa+lKxTy28OYQVaMu4CHuZfjuVDq476AVxxOzXDOVjq8CxuOVNrc90W6tRyOYEEBVoGU8jknpvdw0a2S04gE9SpkmXNGvjm0ViQvfhnKbr9haudYS3r3R3KaXkFP1hFEo8nDfd9X+qmzHKBds/seG7voFCbm3lOyjCRWzQdj48oAGIeBgUMs/vJK0+Zo3pcPJ9hUWSXU1h8gf265VvX4ckYwPl8sWpIx5ixNDhHNmGLRvLkveNAmyVjQ69SdtDJl9+ui6SMKmnn4ScHbDKSl5ynUxWebZ2B9Qq0HHBQwoZOxbHLbbUhICwu+o2NptIGhSPv0cJadqH1plq+ZEUnsiu7yn0Kzm8bwZrjimPeVTeIF9sxIbwfjj47RVq+wJ6U1RuxmnN9M1A4Vvn1yG1IG2w/yWtzrGXcezUtVcxSqgOunddSdGHVp2EX3u7kW62BWZsHJMctWi4Kt1UFvxoIq4QyOEfZFWpqKtIWP89OlpV2DazhvJbWG3zoVDhU2krDJAPQAnuNtvTKa+l3tYFG3aXVRMae6qN8KC/2kBbJE7+h52GqKVM53vISWroTGxihnUT3drBqkcbvYFoYD1F1pbX0t+cTUEy3ATHldCtgEBI6k17SMh9OPtZAFVXrbi6DRee15MErkCH1Zj6RySce2BJUECmDBpjSWna1bVUspld/N5f25sENxaVaoguevsGpeiCvBdshTUgtIy9ouZxCRzVawmiOaMuOs76gqUbGW0nLl3MdPKV93Su9FenTWCieu8oStCw320Q7jtKAsXDmQ1i0m5mVI/d9Lmg5QR4Bj1YoPReVSGa6DYhN82UlLVd4tixoSoltqtuQrbZxFuBwwFzHcdmLMsHgEF/i/P1qDZe0RF5/vFh60roii96UowYU0TIqabm9lhgluFEz0t9wdKdrNl2vx3hQGfbW65Veg3wMW2YXLZlpao9iprAJ6r/eBumWNWQC3kXsRVTQsqe/TuHpac523dlQSsuyexM6i7yW/qHTwYtOs5Ny8A04K0e2sdIfur0BUcA0SFBBSzyhtUwuPjYcj6DCq0nDjPN2WZYCLWPwlMKAgSPXPHzXHZdo6QPeQ7Iau13LoTahdRIfY82QafKa40mN9PGkLNYSRGigevZxq/W8WCywURSPAhW0XCMTtLIlHQ6AWdrIfy+NzD1JBWe1hKOhmOekxNeSV3y7lijSJUx5b9QLvEN9OsY04hNd1tKAS5+ihG60ZJ9V0hINl+Alo5FHiHq1bMRXv6Ll6/m1nU4aFb1dS2TuHOSZIVeJ1atlI2vIK1pOsXd+idSk7tSSgX4EVwF1a9lIbOOKlj4v6tmFpGlf99ol0PIDajmqV8tGYm5XtMQPdIlTZ7lzvHRX6tYw516069WykVjwNS3XRWGH/JcFckK8XUsYjYJPBn2IMptut1G0RyHu3KPIa3lpLE2xdwUz0mk6u13LHXpbalZE9mqdS8+rShN7Z3m9NLe4mw88cF8PcqQpGtW0xNEVYZ9WOCj7OZ9rci+N7OnmtGy5z8EwHC9a6R/fch8SRYIccz2/PaiqpTa+C75YzsLeFt1WuDVL2ViuwVCLH1qccdc6zfXLXCePZjM/F3HMho0KWq41vyu+vfYdd91LSKOxHJhZUQwz27I1cuud2G/p6D0/i4hUiV8WTWVa7Q1kcTSTm2UUfYMutVxoE03y+Ds9PyGbZ6toebz2aadTJi3/VprJGdQjiFhLPWqZjBCh1sntzIuttN/zcXmlms8YrYNmcllRQDenpa9F09NFvxY0kqurSlr64tIuheDDXIvr4FyOdRDkcqyD0jnWRlCweSW1xOvi7FWgRAQQIai2pxvm0l9A3ayhvMJGcv8jufKdTGmJHaBTGHlyxietpqUR2ud2yM26Q+qKZr5JmeVDGEpLbQvj9Ht0PoV63opaGv5n8YEXzraZDp7QzLdSk1xmFHCP4dQkR1u4jFa6V9bSML5Yzp0QVqkP6yrT0Dd8gZaxZzoqytUHU5OV3RFGNi11ZkJ1LQ3/mbtgM1d4Dl80aJQxTX1but4yx2qbpum1bZd1wRlRwT9b8i8LfPvg4khNZ982IO43GwYy/Vmk5UL/2FThH+Oz1OJfOi7nm2Pz3wU09s1zeHx+OnQOH4P9FNvDet/PUMvPnrzWB7uauz5gH1UznI4V0+t2Fkx3/X1/N73yQXFd0Lf49UFnRNQInV1SI3SmTo3QWU91QmeQ1QidjVcjdGZjndBZojVCZ9zWCZ29XCd0Jnit0Fn19UL/Q4EgCIIgCIIgCIIgCIIgCIIgCIIgCIIgCIIgCIIgCIIgCIIgCOJP8R+qtb3uFIZXkAAAAABJRU5ErkJggg==;" parent="1" vertex="1">
          <mxGeometry x="19.999999999999886" y="360" width="130.66" height="60" as="geometry" />
        </mxCell>
        <mxCell id="oPw1ZNJUO6w4mI9i5yck-28" value="Twilio sends the message to the student" style="text;html=1;strokeColor=none;fillColor=none;align=center;verticalAlign=middle;whiteSpace=wrap;rounded=0;" parent="1" vertex="1">
          <mxGeometry x="21.999999999999996" y="450" width="118" height="7" as="geometry" />
        </mxCell>
        <mxCell id="oPw1ZNJUO6w4mI9i5yck-29" value="" style="endArrow=classic;html=1;" parent="1" edge="1">
          <mxGeometry width="50" height="50" relative="1" as="geometry">
            <mxPoint x="100" y="340" as="sourcePoint" />
            <mxPoint x="100" y="270" as="targetPoint" />
          </mxGeometry>
        </mxCell>
        <mxCell id="oPw1ZNJUO6w4mI9i5yck-30" value="" style="endArrow=classic;html=1;" parent="1" edge="1">
          <mxGeometry width="50" height="50" relative="1" as="geometry">
            <mxPoint x="114" y="539" as="sourcePoint" />
            <mxPoint x="77" y="480" as="targetPoint" />
            <Array as="points">
              <mxPoint x="137" y="539" />
            </Array>
          </mxGeometry>
        </mxCell>
      </root>
    </mxGraphModel>
  </diagram>
</mxfile>
